<mxfile host="app.diagrams.net" modified="2023-05-18T05:27:50.917Z" agent="Mozilla/5.0 (Windows NT 10.0; Win64; x64) AppleWebKit/537.36 (KHTML, like Gecko) Chrome/113.0.0.0 Safari/537.36" etag="30SD02jn2fiaWmddaeiV" version="21.3.0" type="github" pages="2">
  <diagram name="페이지-1" id="ZDlk74cAkCYiNa4a_GV9">
    <mxGraphModel dx="1562" dy="865" grid="1" gridSize="10" guides="1" tooltips="1" connect="1" arrows="1" fold="1" page="1" pageScale="1" pageWidth="827" pageHeight="1169" math="0" shadow="0">
      <root>
        <mxCell id="0" />
        <mxCell id="1" parent="0" />
        <mxCell id="RoqaeS-hEFQxHn4rY8xm-1" value="Circle" style="swimlane;fontStyle=1;align=center;verticalAlign=top;childLayout=stackLayout;horizontal=1;startSize=26;horizontalStack=0;resizeParent=1;resizeParentMax=0;resizeLast=0;collapsible=1;marginBottom=0;whiteSpace=wrap;html=1;" parent="1" vertex="1">
          <mxGeometry x="40" y="40" width="230" height="214" as="geometry" />
        </mxCell>
        <mxCell id="RoqaeS-hEFQxHn4rY8xm-2" value="-radius : double = 1.0&lt;br&gt;-color : string = &quot;red&quot;" style="text;strokeColor=none;fillColor=none;align=left;verticalAlign=top;spacingLeft=4;spacingRight=4;overflow=hidden;rotatable=0;points=[[0,0.5],[1,0.5]];portConstraint=eastwest;whiteSpace=wrap;html=1;" parent="RoqaeS-hEFQxHn4rY8xm-1" vertex="1">
          <mxGeometry y="26" width="230" height="64" as="geometry" />
        </mxCell>
        <mxCell id="RoqaeS-hEFQxHn4rY8xm-3" value="" style="line;strokeWidth=1;fillColor=none;align=left;verticalAlign=middle;spacingTop=-1;spacingLeft=3;spacingRight=3;rotatable=0;labelPosition=right;points=[];portConstraint=eastwest;strokeColor=inherit;" parent="RoqaeS-hEFQxHn4rY8xm-1" vertex="1">
          <mxGeometry y="90" width="230" height="2" as="geometry" />
        </mxCell>
        <mxCell id="RoqaeS-hEFQxHn4rY8xm-4" value="+Circle(radius:double, color:string)&lt;br&gt;&lt;br&gt;+getRadius() : double&lt;br&gt;+setRadius(radius:double) : void&amp;nbsp;&lt;br&gt;+getColor() : string&lt;br&gt;+setColor(color:string) : void&lt;br&gt;+getArea() : double" style="text;strokeColor=none;fillColor=none;align=left;verticalAlign=top;spacingLeft=4;spacingRight=4;overflow=hidden;rotatable=0;points=[[0,0.5],[1,0.5]];portConstraint=eastwest;whiteSpace=wrap;html=1;" parent="RoqaeS-hEFQxHn4rY8xm-1" vertex="1">
          <mxGeometry y="92" width="230" height="122" as="geometry" />
        </mxCell>
        <mxCell id="RoqaeS-hEFQxHn4rY8xm-5" value="Time" style="swimlane;fontStyle=1;align=center;verticalAlign=top;childLayout=stackLayout;horizontal=1;startSize=26;horizontalStack=0;resizeParent=1;resizeParentMax=0;resizeLast=0;collapsible=1;marginBottom=0;whiteSpace=wrap;html=1;" parent="1" vertex="1">
          <mxGeometry x="370" y="10" width="230" height="290" as="geometry" />
        </mxCell>
        <mxCell id="RoqaeS-hEFQxHn4rY8xm-6" value="-hour:int = 0&lt;br&gt;-minute:int = 0&lt;br&gt;-second:int = 0" style="text;strokeColor=none;fillColor=none;align=left;verticalAlign=top;spacingLeft=4;spacingRight=4;overflow=hidden;rotatable=0;points=[[0,0.5],[1,0.5]];portConstraint=eastwest;whiteSpace=wrap;html=1;" parent="RoqaeS-hEFQxHn4rY8xm-5" vertex="1">
          <mxGeometry y="26" width="230" height="64" as="geometry" />
        </mxCell>
        <mxCell id="RoqaeS-hEFQxHn4rY8xm-7" value="" style="line;strokeWidth=1;fillColor=none;align=left;verticalAlign=middle;spacingTop=-1;spacingLeft=3;spacingRight=3;rotatable=0;labelPosition=right;points=[];portConstraint=eastwest;strokeColor=inherit;" parent="RoqaeS-hEFQxHn4rY8xm-5" vertex="1">
          <mxGeometry y="90" width="230" height="2" as="geometry" />
        </mxCell>
        <mxCell id="RoqaeS-hEFQxHn4rY8xm-8" value="+Time(h:int, m:int, s:int)&lt;br&gt;&lt;br&gt;+getHour() : int&lt;br&gt;+setHour(h:int) : void&lt;br&gt;+getMinute() : int&lt;br&gt;+setMinute(m:int) : void&lt;br&gt;+getSecond() : int&lt;br&gt;+setSecond(s:int) : void&lt;br&gt;&lt;br&gt;+setTime(h:int, m:int, s:int) : void&lt;br&gt;+print() : void&lt;br&gt;+nextSecond() : void" style="text;strokeColor=none;fillColor=none;align=left;verticalAlign=top;spacingLeft=4;spacingRight=4;overflow=hidden;rotatable=0;points=[[0,0.5],[1,0.5]];portConstraint=eastwest;whiteSpace=wrap;html=1;" parent="RoqaeS-hEFQxHn4rY8xm-5" vertex="1">
          <mxGeometry y="92" width="230" height="198" as="geometry" />
        </mxCell>
        <mxCell id="RoqaeS-hEFQxHn4rY8xm-16" value="Point" style="swimlane;fontStyle=1;align=center;verticalAlign=top;childLayout=stackLayout;horizontal=1;startSize=26;horizontalStack=0;resizeParent=1;resizeParentMax=0;resizeLast=0;collapsible=1;marginBottom=0;whiteSpace=wrap;html=1;" parent="1" vertex="1">
          <mxGeometry x="40" y="350" width="230" height="290" as="geometry" />
        </mxCell>
        <mxCell id="RoqaeS-hEFQxHn4rY8xm-17" value="-x:int = 0&lt;br&gt;-y:int = 0" style="text;strokeColor=none;fillColor=none;align=left;verticalAlign=top;spacingLeft=4;spacingRight=4;overflow=hidden;rotatable=0;points=[[0,0.5],[1,0.5]];portConstraint=eastwest;whiteSpace=wrap;html=1;" parent="RoqaeS-hEFQxHn4rY8xm-16" vertex="1">
          <mxGeometry y="26" width="230" height="64" as="geometry" />
        </mxCell>
        <mxCell id="RoqaeS-hEFQxHn4rY8xm-18" value="" style="line;strokeWidth=1;fillColor=none;align=left;verticalAlign=middle;spacingTop=-1;spacingLeft=3;spacingRight=3;rotatable=0;labelPosition=right;points=[];portConstraint=eastwest;strokeColor=inherit;" parent="RoqaeS-hEFQxHn4rY8xm-16" vertex="1">
          <mxGeometry y="90" width="230" height="2" as="geometry" />
        </mxCell>
        <mxCell id="RoqaeS-hEFQxHn4rY8xm-19" value="+Point(x:int, y:int)&lt;br&gt;&lt;br&gt;+getX() : int&lt;br&gt;+setX(x:int) : void&lt;br&gt;+getY() : int&lt;br&gt;+setY(y:int) : void&lt;br&gt;+setXY(x:int, y:int) : void&lt;br&gt;&lt;br&gt;+getMagnitude() : double&lt;br&gt;+getArgument() : double&lt;br&gt;+print() : void" style="text;strokeColor=none;fillColor=none;align=left;verticalAlign=top;spacingLeft=4;spacingRight=4;overflow=hidden;rotatable=0;points=[[0,0.5],[1,0.5]];portConstraint=eastwest;whiteSpace=wrap;html=1;" parent="RoqaeS-hEFQxHn4rY8xm-16" vertex="1">
          <mxGeometry y="92" width="230" height="198" as="geometry" />
        </mxCell>
      </root>
    </mxGraphModel>
  </diagram>
  <diagram id="j5jOOzbSai0Xo_f6vgvx" name="페이지-2">
    <mxGraphModel dx="1562" dy="865" grid="1" gridSize="10" guides="1" tooltips="1" connect="1" arrows="1" fold="1" page="1" pageScale="1" pageWidth="827" pageHeight="1169" math="0" shadow="0">
      <root>
        <mxCell id="0" />
        <mxCell id="1" parent="0" />
        <mxCell id="NNsstL4eTtnxqqrd11fd-1" value="MQTTMessage" style="swimlane;fontStyle=1;align=center;verticalAlign=top;childLayout=stackLayout;horizontal=1;startSize=26;horizontalStack=0;resizeParent=1;resizeParentMax=0;resizeLast=0;collapsible=1;marginBottom=0;whiteSpace=wrap;html=1;" vertex="1" parent="1">
          <mxGeometry x="520" y="400" width="360" height="150" as="geometry" />
        </mxCell>
        <mxCell id="NNsstL4eTtnxqqrd11fd-2" value="- topic_ : string&lt;br&gt;- payload_ : map&amp;lt;string, string&amp;gt;" style="text;strokeColor=none;fillColor=none;align=left;verticalAlign=top;spacingLeft=4;spacingRight=4;overflow=hidden;rotatable=0;points=[[0,0.5],[1,0.5]];portConstraint=eastwest;whiteSpace=wrap;html=1;" vertex="1" parent="NNsstL4eTtnxqqrd11fd-1">
          <mxGeometry y="26" width="360" height="44" as="geometry" />
        </mxCell>
        <mxCell id="NNsstL4eTtnxqqrd11fd-3" value="" style="line;strokeWidth=1;fillColor=none;align=left;verticalAlign=middle;spacingTop=-1;spacingLeft=3;spacingRight=3;rotatable=0;labelPosition=right;points=[];portConstraint=eastwest;strokeColor=inherit;" vertex="1" parent="NNsstL4eTtnxqqrd11fd-1">
          <mxGeometry y="70" width="360" height="8" as="geometry" />
        </mxCell>
        <mxCell id="NNsstL4eTtnxqqrd11fd-4" value="+ MQTTMessage(topic:string&amp;amp;, payload:map&amp;amp;&amp;lt;string,string&amp;gt;&lt;br&gt;+ getTopic() : string&lt;br&gt;+ getPayload() : map&amp;lt;string, string&amp;gt;" style="text;strokeColor=none;fillColor=none;align=left;verticalAlign=top;spacingLeft=4;spacingRight=4;overflow=hidden;rotatable=0;points=[[0,0.5],[1,0.5]];portConstraint=eastwest;whiteSpace=wrap;html=1;" vertex="1" parent="NNsstL4eTtnxqqrd11fd-1">
          <mxGeometry y="78" width="360" height="72" as="geometry" />
        </mxCell>
        <mxCell id="NNsstL4eTtnxqqrd11fd-9" value="&lt;p style=&quot;margin:0px;margin-top:4px;text-align:center;&quot;&gt;&lt;i&gt;&amp;lt;&amp;lt;Interface&amp;gt;&amp;gt;&lt;/i&gt;&lt;br&gt;&lt;/p&gt;&lt;p style=&quot;margin:0px;margin-top:4px;text-align:center;&quot;&gt;&lt;i&gt;&lt;b&gt;MQTTMessageParser&lt;/b&gt;&lt;/i&gt;&lt;/p&gt;&lt;hr size=&quot;1&quot;&gt;&lt;p style=&quot;margin:0px;margin-left:4px;&quot;&gt;+ parse(message:string&amp;amp;) : MQTTMessage*&lt;/p&gt;" style="verticalAlign=top;align=left;overflow=fill;fontSize=12;fontFamily=Helvetica;html=1;whiteSpace=wrap;" vertex="1" parent="1">
          <mxGeometry x="50" y="180" width="360" height="95" as="geometry" />
        </mxCell>
        <mxCell id="NNsstL4eTtnxqqrd11fd-10" value="&lt;p style=&quot;margin:0px;margin-top:4px;text-align:center;&quot;&gt;&lt;i&gt;&amp;lt;&amp;lt;Interface&amp;gt;&amp;gt;&lt;/i&gt;&lt;br&gt;&lt;/p&gt;&lt;p style=&quot;margin:0px;margin-top:4px;text-align:center;&quot;&gt;&lt;i&gt;&lt;b&gt;MQTTMessageParserFactory&lt;/b&gt;&lt;/i&gt;&lt;/p&gt;&lt;hr size=&quot;1&quot;&gt;&lt;p style=&quot;margin:0px;margin-left:4px;&quot;&gt;+ createParser(topic:string&amp;amp;) : MQTTMessageParser*&lt;/p&gt;" style="verticalAlign=top;align=left;overflow=fill;fontSize=12;fontFamily=Helvetica;html=1;whiteSpace=wrap;" vertex="1" parent="1">
          <mxGeometry x="40" y="760" width="360" height="95" as="geometry" />
        </mxCell>
        <mxCell id="NNsstL4eTtnxqqrd11fd-11" value="JSONMQTTMessageParser" style="swimlane;fontStyle=1;align=center;verticalAlign=top;childLayout=stackLayout;horizontal=1;startSize=26;horizontalStack=0;resizeParent=1;resizeParentMax=0;resizeLast=0;collapsible=1;marginBottom=0;whiteSpace=wrap;html=1;" vertex="1" parent="1">
          <mxGeometry x="40" y="400" width="360" height="150" as="geometry" />
        </mxCell>
        <mxCell id="NNsstL4eTtnxqqrd11fd-12" value="- topic_ : string&lt;br&gt;- payload_ : map&amp;lt;string, string&amp;gt;" style="text;strokeColor=none;fillColor=none;align=left;verticalAlign=top;spacingLeft=4;spacingRight=4;overflow=hidden;rotatable=0;points=[[0,0.5],[1,0.5]];portConstraint=eastwest;whiteSpace=wrap;html=1;" vertex="1" parent="NNsstL4eTtnxqqrd11fd-11">
          <mxGeometry y="26" width="360" height="44" as="geometry" />
        </mxCell>
        <mxCell id="NNsstL4eTtnxqqrd11fd-13" value="" style="line;strokeWidth=1;fillColor=none;align=left;verticalAlign=middle;spacingTop=-1;spacingLeft=3;spacingRight=3;rotatable=0;labelPosition=right;points=[];portConstraint=eastwest;strokeColor=inherit;" vertex="1" parent="NNsstL4eTtnxqqrd11fd-11">
          <mxGeometry y="70" width="360" height="8" as="geometry" />
        </mxCell>
        <mxCell id="NNsstL4eTtnxqqrd11fd-14" value="+ MQTTMessage(topic:string&amp;amp;, payload:map&amp;amp;&amp;lt;string,string&amp;gt;&lt;br&gt;+ getTopic() : string&lt;br&gt;+ getPayload() : map&amp;lt;string, string&amp;gt;" style="text;strokeColor=none;fillColor=none;align=left;verticalAlign=top;spacingLeft=4;spacingRight=4;overflow=hidden;rotatable=0;points=[[0,0.5],[1,0.5]];portConstraint=eastwest;whiteSpace=wrap;html=1;" vertex="1" parent="NNsstL4eTtnxqqrd11fd-11">
          <mxGeometry y="78" width="360" height="72" as="geometry" />
        </mxCell>
        <mxCell id="NNsstL4eTtnxqqrd11fd-15" value="" style="endArrow=block;endSize=16;endFill=0;html=1;rounded=0;entryX=0.468;entryY=0.979;entryDx=0;entryDy=0;entryPerimeter=0;exitX=0.5;exitY=0;exitDx=0;exitDy=0;" edge="1" parent="1" source="NNsstL4eTtnxqqrd11fd-11" target="NNsstL4eTtnxqqrd11fd-9">
          <mxGeometry width="160" relative="1" as="geometry">
            <mxPoint x="210" y="390" as="sourcePoint" />
            <mxPoint x="1040" y="332" as="targetPoint" />
          </mxGeometry>
        </mxCell>
      </root>
    </mxGraphModel>
  </diagram>
</mxfile>
